<svg width="266" height="194" viewBox="0 0 266 194" fill="none" xmlns="http://www.w3.org/2000/svg">
<path d="M184.024 176.815L188.981 182.266C188.981 182.266 193.567 182.319 192.67 179.741C192.491 179.183 192.363 178.608 192.289 178.025C192.063 176.196 191.955 174.353 191.966 172.509C191.966 171.301 191.984 170.452 191.984 170.452C191.984 170.452 184.764 167.231 185.502 170.587C185.594 171.007 185.643 171.435 185.649 171.865C185.652 173.108 185.37 174.336 184.826 175.449C184.603 175.93 184.335 176.388 184.024 176.815Z" fill="#FFB9B9"/>
<path d="M172.523 185.023C174.204 186.482 176.352 187.262 178.56 187.215C182.648 187.156 190.286 187.033 192.06 186.958C194.433 186.851 193.645 184.788 193.569 183.367V183.226C193.54 181.801 193.261 178.715 192.788 178.232C192.315 177.75 190.695 180.38 190.695 180.38C190.695 180.38 187.532 181.32 186.662 178.502C185.792 175.684 184.025 175.412 184.025 175.412C183.222 175.058 183.183 177.184 183.183 177.184L176.488 180.7L172.56 181.326C172.434 181.384 172.32 181.445 172.212 181.504C170.435 182.519 171.223 183.878 172.523 185.023Z" fill="#090814"/>
<path d="M165.391 176.815L170.348 182.266C170.348 182.266 174.934 182.319 174.037 179.741C173.857 179.183 173.73 178.608 173.656 178.025C173.43 176.196 173.322 174.353 173.333 172.509C173.333 171.301 173.351 170.452 173.351 170.452C173.351 170.452 166.131 167.231 166.869 170.587C166.96 171.007 167.01 171.435 167.016 171.865C167.019 173.108 166.737 174.336 166.193 175.449C165.97 175.93 165.702 176.388 165.391 176.815Z" fill="#FFB9B9"/>
<path d="M153.89 185.023C155.571 186.482 157.719 187.262 159.927 187.215C164.015 187.156 171.653 187.033 173.427 186.958C175.8 186.851 175.012 184.788 174.936 183.367V183.226C174.907 181.801 174.629 178.715 174.155 178.232C173.682 177.75 172.062 180.38 172.062 180.38C172.062 180.38 168.899 181.32 168.029 178.502C167.159 175.684 165.392 175.412 165.392 175.412C164.59 175.058 164.55 177.184 164.55 177.184L157.855 180.7L153.927 181.326C153.801 181.384 153.687 181.445 153.58 181.504C151.803 182.519 152.59 183.878 153.89 185.023Z" fill="#090814"/>
<path d="M75.5622 16.2874C75.5622 16.2874 75.7066 24.7164 72.8107 25.4516C69.9147 26.1868 76.9811 33.809 80.7679 32.8304C84.5546 31.8518 86.0147 25.6728 86.0147 25.6728C86.0147 25.6728 82.5857 21.4041 83.8885 19.1019C85.1914 16.7997 75.5622 16.2874 75.5622 16.2874Z" fill="#A0616A"/>
<path d="M187.942 37.2608C189.438 30.9701 190.705 23.8758 187.884 18.0808C185.927 14.0595 178.686 12.7069 174.535 14.1552C170.384 15.6034 167.383 19.5327 166.062 23.8168C164.742 28.1009 164.896 32.7175 165.471 37.1725C173.106 37.0219 180.74 36.8725 187.942 37.2608Z" fill="#090814"/>
<path d="M26.2741 174.076C26.3889 178.441 27.1068 182.768 28.4067 186.929C28.4355 187.025 28.4675 187.12 28.4986 187.217H36.4562C36.4478 187.13 36.4392 187.034 36.4308 186.929C35.9002 180.716 38.9314 143.353 42.5891 136.886C42.269 137.411 25.6571 154.335 26.2741 174.076Z" fill="#E6E6E6"/>
<path d="M26.8712 186.929C26.9378 187.025 27.007 187.122 27.0779 187.217H33.048C33.0028 187.135 32.9503 187.038 32.8895 186.929C31.9033 185.116 28.9842 179.695 26.2747 174.076C23.3639 168.038 20.6913 161.77 20.9163 159.502C20.8466 160.013 18.8316 175.61 26.8712 186.929Z" fill="#E6E6E6"/>
<path d="M123.639 180.541C123.698 182.758 124.062 184.956 124.723 187.07C124.737 187.119 124.754 187.168 124.769 187.217H128.812C128.808 187.173 128.804 187.124 128.799 187.07C128.53 183.914 130.07 164.931 131.928 161.646C131.766 161.914 123.326 170.511 123.639 180.541Z" fill="#E6E6E6"/>
<path d="M123.943 187.069C123.976 187.118 124.012 187.167 124.048 187.216H127.081C127.058 187.175 127.031 187.126 127 187.069C126.499 186.148 125.016 183.394 123.64 180.54C122.161 177.472 120.803 174.288 120.918 173.135C120.882 173.396 119.858 181.32 123.943 187.069Z" fill="#E6E6E6"/>
<path d="M99.7035 54.1154L89.4122 61.5711L95.8158 62.2697L104.735 54.5821L99.7035 54.1154Z" fill="#090814"/>
<path d="M170.575 46.0227L183.42 46.2173L179.68 34.1349L171.196 35.94C172.547 38.8826 172.26 42.2652 170.575 46.0227Z" fill="#FFB9B9"/>
<path d="M58.8641 180.896H67.0775L70.9834 156.578H58.8627L58.8641 180.896Z" fill="#9F616A"/>
<path d="M55.5488 94.5609C55.5488 94.5609 52.8663 97.4786 57.3067 108.852V171.217H68.6493L74.0838 140.526L79.8461 96.1333L55.5488 94.5609Z" fill="#F2F2F2"/>
<path d="M41.1765 84.1396C40.3261 84.1372 39.5102 83.7975 38.9017 83.1925C38.2932 82.5875 37.9401 81.7648 37.9173 80.899L37.2418 54.969L48.8009 32.6333C49.0633 32.1303 49.4473 31.7038 49.9167 31.3941C50.386 31.0844 50.9251 30.9017 51.483 30.8633L60.2919 30.2874L59.5314 82.5551L41.4618 84.1278C41.3667 84.1357 41.2716 84.1396 41.1765 84.1396Z" fill="#FFD43B"/>
<path d="M84.783 103.688L84.6254 103.664C66.21 100.803 52.3134 98.0606 52.1751 98.0331L52.0022 97.999L56.8311 86.0396C56.7931 84.7901 55.7481 49.698 57.7484 39.6158C59.6851 29.8556 68.8132 28.2561 69.8524 28.1055L70.8968 24.5808L84.0922 31.5745L86.3937 39.6419L86.8612 61.7528L84.783 103.688Z" fill="#090814"/>
<path d="M66.6493 70.2144C58.1477 70.2144 51.2311 60.7994 51.2311 49.2269C51.2311 37.6544 58.1477 28.2394 66.6493 28.2394C75.1509 28.2394 82.0675 37.6544 82.0675 49.2269C82.0675 60.7994 75.1509 70.2144 66.6493 70.2144ZM66.6493 30.2941C59.2601 30.2941 53.2484 38.7875 53.2484 49.2269C53.2484 59.6664 59.2601 68.1597 66.6493 68.1597C74.0385 68.1597 80.0501 59.6664 80.0501 49.2269C80.0501 38.7875 74.0385 30.2941 66.6493 30.2941Z" fill="#FFD43B"/>
<path d="M92.7307 58.1796C92.1364 58.1794 91.5485 58.3045 91.0039 58.547C90.4594 58.7894 89.97 59.1441 89.5666 59.5886H67.3878L59.2637 61.3498L60.5974 71.8289L89.4977 65.4977C89.9762 66.0483 90.5824 66.468 91.2611 66.7186C91.9397 66.9692 92.6692 67.0426 93.3829 66.9321C94.0966 66.8216 94.7717 66.5308 95.3467 66.0862C95.9216 65.6416 96.378 65.0573 96.6743 64.3868C96.9705 63.7163 97.097 62.9809 97.0424 62.2477C96.9878 61.5146 96.7537 60.8071 96.3615 60.1898C95.9693 59.5725 95.4315 59.0651 94.7973 58.714C94.1631 58.3628 93.4526 58.1791 92.7307 58.1796Z" fill="#9F616A"/>
<path d="M91.1029 23.0956C95.2773 18.8439 95.2773 11.9503 91.1029 7.69855C86.9285 3.44676 80.1604 3.44676 75.986 7.69855C71.8115 11.9503 71.8115 18.8439 75.986 23.0956C80.1604 27.3474 86.9285 27.3474 91.1029 23.0956Z" fill="#9F616A"/>
<path d="M73.4901 6.69416L72.9714 5.63186L75.5789 4.31097C75.5789 4.31097 78.4554 -0.456281 83.6607 0.883398C88.866 2.22308 91.2078 3.02618 91.2078 3.02618L93.8087 4.35911L92.5032 5.68206L94.8451 6.48399L93.2805 7.27652L95.1007 8.34233L94.1208 13.8053C94.1208 13.8053 92.4931 9.66176 89.3657 11.2451C86.2382 12.8284 80.5133 10.4264 80.5133 10.4264L75.54 20.226C75.54 20.226 74.5144 16.7902 72.6852 17.7063C72.6852 17.7069 68.0131 10.1285 73.4901 6.69416Z" fill="#090814"/>
<path d="M166.37 73.721L165.914 64.9931L161.303 61.1772L158.631 69.2593L143.692 89.555C142.986 89.6703 142.326 89.9892 141.792 90.4741C141.259 90.959 140.872 91.5895 140.679 92.291C140.486 92.9926 140.494 93.7358 140.703 94.4327C140.911 95.1297 141.311 95.7512 141.856 96.2237C142.4 96.6963 143.066 97.0001 143.775 97.0992C144.484 97.1983 145.205 97.0886 145.855 96.783C146.504 96.4774 147.054 95.9888 147.439 95.3749C147.825 94.761 148.029 94.0475 148.029 93.3189C148.029 93.2676 148.023 93.2177 148.021 93.1669L166.37 73.721Z" fill="#FFB9B9"/>
<path d="M179.329 36.1479C183.643 33.7459 185.228 28.2367 182.87 23.8427C180.512 19.4487 175.103 17.8338 170.789 20.2358C166.475 22.6377 164.889 28.147 167.247 32.541C169.606 36.935 175.015 38.5499 179.329 36.1479Z" fill="#FFB9B9"/>
<path d="M185.942 26.3241C185.972 24.7972 185.7 23.2797 185.142 21.862C184.584 20.4444 183.752 19.1554 182.695 18.0719C181.639 16.9884 180.379 16.1324 178.991 15.5549C177.602 14.9774 176.114 14.6902 174.615 14.7103C173.116 14.7304 171.636 15.0575 170.263 15.672C168.89 16.2866 167.653 17.1761 166.625 18.2876C165.596 19.3991 164.798 20.7099 164.277 22.1421C163.756 23.5743 163.523 25.0985 163.593 26.6241C171.212 26.6409 178.832 26.6573 185.942 26.3241Z" fill="#090814"/>
<path d="M160.764 82.8196C160.764 82.8196 159.315 104.251 160.101 110.788C160.887 117.326 165.978 172.794 165.978 172.794H174.961L177.822 107.115L183.939 174.415L193.447 173.609L195.922 107.892C195.922 107.892 195.328 82.9872 190.5 80.4898L160.764 82.8196Z" fill="#090814"/>
<path d="M170.892 104.064C166.149 104.062 161.475 102.909 157.258 100.701L157.165 100.653L160.734 76.5324L160.504 47.7857C160.497 46.9967 160.645 46.2143 160.939 45.4841C161.233 44.754 161.666 44.0908 162.214 43.5331C162.763 42.9755 163.414 42.5346 164.131 42.2361C164.848 41.9377 165.617 41.7878 166.391 41.795L185.542 41.974C186.39 41.9819 187.227 42.1675 188.002 42.5191C188.776 42.8707 189.471 43.3809 190.044 44.018C190.616 44.655 191.054 45.4052 191.33 46.222C191.605 47.0387 191.713 47.9045 191.646 48.7655L189.854 71.8107L195.781 90.5157L194.751 91.9106C191.973 95.6837 188.371 98.7462 184.23 100.855C180.09 102.965 175.523 104.063 170.893 104.063L170.892 104.064Z" fill="#F2F2F2"/>
<path d="M158.578 66.5955L160.585 45.7395L161.23 44.8046C161.672 44.1644 162.233 43.6193 162.883 43.2007C163.532 42.7822 164.256 42.4983 165.013 42.3654C165.77 42.2325 166.545 42.2533 167.295 42.4264C168.044 42.5996 168.752 42.9218 169.379 43.3745L169.932 43.774L169.386 64.9097L158.578 66.5955Z" fill="#F2F2F2"/>
<path d="M240.806 168.489C245.994 167.029 248.208 175.053 243.033 176.56C237.846 178.02 235.632 169.996 240.806 168.489Z" fill="#090814"/>
<path d="M212.043 178.817C217.23 177.358 219.444 185.382 214.27 186.888C209.082 188.348 206.868 180.324 212.043 178.817Z" fill="#090814"/>
<path d="M200.402 94.1898L200.482 94.1669L213.844 131.117L215.606 130.613L202.148 93.3976C202.118 92.824 201.898 92.2778 201.522 91.8497C201.146 91.4215 200.637 91.1373 200.081 91.044C193.398 89.9677 190.69 96.0097 190.69 96.0097L190.716 96.0499L204.377 133.827L206.138 133.323L192.88 96.6573C196.917 92.5907 200.402 94.1898 200.402 94.1898Z" fill="#090814"/>
<path d="M215.716 180.896C213.81 180.879 211.958 180.243 210.431 179.079C208.905 177.916 207.782 176.287 207.228 174.429C204.678 165.926 198.661 145.555 197.862 140.027C196.825 132.829 202.675 130.78 202.804 130.737C202.961 130.683 205.313 130.013 208.568 129.085C214.101 127.508 222.462 125.125 222.769 124.984C224.065 124.525 225.44 124.344 226.807 124.451C228.175 124.559 229.506 124.953 230.717 125.609C231.965 126.278 233.067 127.198 233.955 128.314C234.844 129.43 235.5 130.718 235.884 132.101L244.491 163.289C245.022 165.201 244.873 167.243 244.07 169.054C243.268 170.865 241.863 172.329 240.104 173.188C233.463 176.438 223.723 180.773 215.846 180.895L215.716 180.896Z" fill="#FFD43B"/>
<path d="M198.981 92.9118L194.654 67.1691L194.171 58.4805L187.177 60.8141L193.076 94.5215C192.838 95.1775 192.781 95.8876 192.913 96.5741C193.044 97.2605 193.358 97.897 193.821 98.4138C194.284 98.9307 194.877 99.308 195.536 99.5046C196.195 99.7011 196.894 99.7094 197.558 99.5284C198.221 99.3473 198.823 98.9841 199.297 98.4782C199.771 97.9724 200.099 97.3435 200.246 96.6603C200.393 95.9771 200.353 95.266 200.13 94.6045C199.907 93.9431 199.509 93.3569 198.981 92.9101L198.981 92.9118Z" fill="#FFB9B9"/>
<path d="M195.837 65.5552L184.92 64.9502L182.355 43.9689L182.605 43.7484C183.219 43.2053 183.933 42.7911 184.706 42.5297C185.478 42.2684 186.293 42.165 187.105 42.2254C187.917 42.2859 188.709 42.5091 189.435 42.8821C190.162 43.2551 190.81 43.7707 191.34 44.3992L191.845 44.9974L191.853 45.0353L195.837 65.5552Z" fill="#F2F2F2"/>
<path d="M240.296 168.043L229.137 129.575L202.898 137.128L202.741 136.563L229.529 128.852L229.609 129.13L240.849 167.877L240.296 168.043Z" fill="#3F3D56"/>
<path d="M42.0093 81.3812L40.821 54.9927L52.9919 30.7605L53.5049 31.0279L41.4041 55.1213L42.5856 81.3545L42.0093 81.3812Z" fill="#3F3D56"/>
<path d="M265.712 187.803H0.288191C0.211758 187.803 0.138455 187.772 0.0844089 187.717C0.0303626 187.662 0 187.588 0 187.51C0 187.432 0.0303626 187.357 0.0844089 187.302C0.138455 187.247 0.211758 187.216 0.288191 187.216H265.712C265.788 187.216 265.862 187.247 265.916 187.302C265.97 187.357 266 187.432 266 187.51C266 187.588 265.97 187.662 265.916 187.717C265.862 187.772 265.788 187.803 265.712 187.803Z" fill="#CCCCCC"/>
<path d="M60.7394 73.7926L58.2033 66.1079L57.5897 40.4917L58.6704 36.8572C59.0593 35.549 59.7035 34.3343 60.5644 33.2858C61.4252 32.2373 62.4851 31.3767 63.6803 30.7554C64.8756 30.1341 66.1817 29.765 67.5204 29.6702C68.8591 29.5753 70.2028 29.7568 71.471 30.2036C72.7392 30.6504 73.9058 31.3534 74.9009 32.2704C75.8959 33.1875 76.699 34.2997 77.2619 35.5404C77.8248 36.7812 78.136 38.1249 78.1768 39.491C78.2176 40.8572 77.9872 42.2177 77.4994 43.491L71.7067 58.6096L72.0013 59.1917L84.5508 59.0881L89.0086 67.2609L60.7394 73.7926Z" fill="#090814"/>
<path d="M140.685 128.478L140.676 128.479L126.767 131.315L114.801 136.223C114.647 136.287 114.481 136.319 114.314 136.317C114.148 136.315 113.983 136.28 113.83 136.214C113.676 136.147 113.537 136.05 113.42 135.929C113.304 135.808 113.211 135.664 113.149 135.507C113.135 135.47 113.122 135.432 113.11 135.394L104.369 105.582C104.277 105.273 104.303 104.941 104.44 104.65C104.578 104.359 104.817 104.132 105.112 104.012L117.296 99.0147L117.305 99.0129L131.214 96.1768L143.179 91.2689C143.334 91.2055 143.499 91.1737 143.666 91.1754C143.833 91.177 143.998 91.2121 144.151 91.2787C144.304 91.3452 144.443 91.4419 144.56 91.5631C144.677 91.6844 144.769 91.8279 144.831 91.9854C144.846 92.0224 144.859 92.0601 144.87 92.0985L153.611 121.91C153.703 122.219 153.678 122.552 153.54 122.842C153.403 123.133 153.163 123.361 152.869 123.48L140.685 128.478Z" fill="#E6E6E6"/>
<path d="M125.759 108.453C122.57 107.306 119.273 106.302 115.961 105.468L115.794 105.426L117.476 111.16L126.042 108.554L125.759 108.453ZM117.608 110.912L116.08 105.703C119.232 106.502 122.369 107.455 125.411 108.539L117.608 110.912ZM142.473 116.204C140.989 115.349 139.483 114.53 137.955 113.748C137.534 113.532 137.111 113.319 136.687 113.109C134.101 111.827 131.475 110.659 128.809 109.604L128.778 109.591L117.98 112.876L120.928 122.933L142.673 116.318L142.473 116.204ZM121.061 122.686L118.224 113.01L128.771 109.801C131.342 110.819 133.883 111.947 136.395 113.185C136.831 113.4 137.265 113.618 137.698 113.838C139.211 114.61 140.704 115.418 142.178 116.262L121.061 122.686ZM142.473 116.204C140.989 115.349 139.483 114.53 137.955 113.748C137.534 113.532 137.111 113.319 136.687 113.109C134.101 111.827 131.475 110.659 128.809 109.604L128.778 109.591L117.98 112.876L120.928 122.933L142.673 116.318L142.473 116.204ZM121.061 122.686L118.224 113.01L128.771 109.801C131.342 110.819 133.883 111.947 136.395 113.185C136.831 113.4 137.265 113.618 137.698 113.838C139.211 114.61 140.704 115.418 142.178 116.262L121.061 122.686ZM125.76 108.453C122.571 107.306 119.274 106.302 115.962 105.468L115.796 105.426L117.477 111.16L126.043 108.554L125.76 108.453ZM117.609 110.912L116.081 105.703C119.233 106.502 122.37 107.455 125.412 108.539L117.609 110.912ZM125.76 108.453C122.571 107.306 119.274 106.302 115.962 105.468L115.796 105.426L117.477 111.16L126.043 108.554L125.76 108.453ZM117.609 110.912L116.081 105.703C119.233 106.502 122.37 107.455 125.412 108.539L117.609 110.912ZM142.475 116.204C140.99 115.349 139.484 114.53 137.956 113.748C137.535 113.532 137.112 113.319 136.688 113.109C134.102 111.827 131.476 110.659 128.81 109.604L128.779 109.591L117.98 112.876L120.928 122.933L142.673 116.318L142.475 116.204ZM121.062 122.686L118.225 113.01L128.773 109.801C131.343 110.819 133.884 111.947 136.396 113.185C136.832 113.4 137.266 113.618 137.699 113.838C139.212 114.61 140.705 115.418 142.179 116.262L121.062 122.686ZM112.166 127.468L112.222 127.659L119.615 125.41L120.426 128.175L113.033 130.423L113.089 130.614L120.668 128.309L119.746 125.162L112.166 127.468ZM122.858 129.511L123.425 131.443L123.607 131.369L123.101 129.645L151.928 120.876L151.872 120.686L122.858 129.511ZM150.504 116.014L150.448 115.823L121.431 124.65L122.354 127.796L151.369 118.97L151.313 118.779L122.485 127.548L121.674 124.782L150.504 116.014ZM128.955 107.461C124.536 105.732 119.997 104.34 115.376 103.298L114.81 101.367L114.628 101.442L115.198 103.387L115.389 103.505C119.993 104.546 124.514 105.934 128.916 107.659L128.947 107.671L146.492 102.334L146.436 102.143L128.955 107.461ZM115.549 111.539L108.156 113.788L108.212 113.979L115.792 111.673L112.989 102.114L112.806 102.188L115.549 111.539ZM146.996 104.05L131.571 108.742L131.823 108.849C134.188 109.863 136.548 110.984 138.902 112.212C139.236 112.386 139.57 112.563 139.904 112.742C141.566 113.631 143.214 114.569 144.85 115.557L145.031 115.603L149.945 114.108L149.889 113.917L144.987 115.408C143.369 114.43 141.736 113.499 140.088 112.616C139.758 112.44 139.428 112.265 139.098 112.091C136.794 110.886 134.478 109.78 132.15 108.774L147.053 104.241L146.996 104.05ZM113.592 132.33L113.648 132.521L121.04 130.271L121.602 132.189L121.784 132.115L121.171 130.024L113.592 132.33ZM108.714 115.694L108.77 115.885L116.163 113.636L119.001 123.313L111.607 125.561L111.663 125.752L119.243 123.446L116.294 113.389L108.714 115.694ZM125.759 108.453C122.57 107.306 119.273 106.302 115.961 105.468L115.794 105.426L117.476 111.16L126.042 108.554L125.759 108.453ZM117.608 110.912L116.08 105.703C119.232 106.502 122.369 107.455 125.411 108.539L117.608 110.912ZM142.473 116.204C140.989 115.349 139.483 114.53 137.955 113.748C137.534 113.532 137.111 113.319 136.687 113.109C134.101 111.827 131.475 110.659 128.809 109.604L128.778 109.591L117.98 112.876L120.928 122.933L142.673 116.318L142.473 116.204ZM121.061 122.686L118.224 113.01L128.771 109.801C131.342 110.819 133.883 111.947 136.395 113.185C136.831 113.4 137.265 113.618 137.698 113.838C139.211 114.61 140.704 115.418 142.178 116.262L121.061 122.686ZM125.76 108.453C122.571 107.306 119.274 106.302 115.962 105.468L115.796 105.426L117.477 111.16L126.043 108.554L125.76 108.453ZM117.609 110.912L116.081 105.703C119.233 106.502 122.37 107.455 125.412 108.539L117.609 110.912ZM142.475 116.204C140.99 115.349 139.484 114.53 137.956 113.748C137.535 113.532 137.112 113.319 136.688 113.109C134.102 111.827 131.476 110.659 128.81 109.604L128.779 109.591L117.98 112.876L120.928 122.933L142.673 116.318L142.475 116.204ZM121.062 122.686L118.225 113.01L128.773 109.801C131.343 110.819 133.884 111.947 136.396 113.185C136.832 113.4 137.266 113.618 137.699 113.838C139.212 114.61 140.705 115.418 142.179 116.262L121.062 122.686Z" fill="#D07FFF"/>
<path d="M128.243 109.351C128.951 111.765 126.236 118.45 126.236 118.45C126.236 118.45 120.366 114.377 119.658 111.963C119.49 111.389 119.434 110.787 119.494 110.191C119.555 109.595 119.729 109.017 120.009 108.489C120.288 107.962 120.667 107.496 121.123 107.118C121.58 106.74 122.104 106.457 122.668 106.285C123.232 106.114 123.823 106.057 124.408 106.118C124.994 106.179 125.561 106.357 126.079 106.642C126.596 106.927 127.054 107.312 127.425 107.777C127.797 108.242 128.074 108.777 128.243 109.351Z" fill="#9B36D5"/>
<path d="M125.857 109.871C125.973 110.266 125.971 110.687 125.852 111.082C125.733 111.476 125.502 111.825 125.187 112.086C124.873 112.346 124.49 112.506 124.087 112.544C123.684 112.583 123.278 112.499 122.922 112.303C122.566 112.107 122.274 111.808 122.085 111.443C121.895 111.078 121.816 110.665 121.858 110.254C121.899 109.844 122.059 109.455 122.318 109.137C122.576 108.82 122.921 108.587 123.309 108.469C123.829 108.311 124.39 108.369 124.868 108.632C125.346 108.895 125.702 109.341 125.857 109.871Z" fill="#EEEEEE"/>
<path d="M126.815 121.656C127.482 121.656 128.023 121.105 128.023 120.426C128.023 119.747 127.482 119.196 126.815 119.196C126.149 119.196 125.608 119.747 125.608 120.426C125.608 121.105 126.149 121.656 126.815 121.656Z" fill="#9B36D5"/>
<path d="M139.991 104.255L131.599 106.809C131.589 106.812 131.578 106.815 131.567 106.816L133.483 98.6066C133.494 98.5556 133.519 98.5087 133.554 98.4705C133.589 98.4323 133.634 98.4043 133.683 98.3894C133.732 98.3745 133.784 98.3731 133.834 98.3855C133.884 98.3979 133.93 98.4236 133.967 98.4599L138.008 102.349L138.202 102.535L139.991 104.255Z" fill="#9B36D5"/>
<path opacity="0.2" d="M139.991 104.255L137.126 105.127L137.922 102.618L137.98 102.437L138.009 102.347L138.202 102.533L139.991 104.255Z" fill="black"/>
<path d="M144.664 102.834L137.405 105.042L138.202 102.533L138.259 102.352L139.297 99.083C139.317 99.0317 139.348 98.9853 139.387 98.9469C139.426 98.9084 139.472 98.8788 139.523 98.8598C139.574 98.8408 139.628 98.833 139.683 98.8368C139.737 98.8406 139.789 98.856 139.837 98.8819C139.85 98.8897 139.862 98.8982 139.874 98.9075L144.664 102.834Z" fill="#9B36D5"/>
<path d="M57.7857 187.37L77.9413 187.829C79.3141 187.728 80.4775 186.757 80.7382 185.497C80.8621 184.86 80.7411 184.2 80.4003 183.652C80.0594 183.103 79.5247 182.71 78.9068 182.552C74.6145 181.256 73.4518 179.821 71.3723 177.406C68.9116 173.13 68.718 173.312 67.0897 176.198C63.4663 179.631 61.0352 178.566 57.6576 176.448L55.4459 184.559C55.3516 184.895 55.3404 185.25 55.4133 185.591C55.4861 185.933 55.6409 186.251 55.8636 186.517C56.1035 186.793 56.3998 187.013 56.7317 187.16C57.0637 187.308 57.4236 187.379 57.7857 187.37Z" fill="#090814"/>
</svg>
