<svg width="14" height="19" viewBox="0 0 14 19" fill="none" xmlns="http://www.w3.org/2000/svg">
<g clip-path="url(#clip0_1_24142)">
<path fill-rule="evenodd" clip-rule="evenodd" d="M8.60818 0.308028C7.97786 0.10891 7.3074 0 6.61114 0C4.57972 0 2.76179 0.918285 1.5498 2.36088L4.67283 4.98824L8.60812 0.307971L8.60818 0.308028Z" fill="#1A73E8"/>
<path fill-rule="evenodd" clip-rule="evenodd" d="M1.54861 2.36096C0.58303 3.50991 0 4.99264 0 6.61003C0 7.85351 0.247832 8.86064 0.654651 9.76318L4.67163 4.98832L1.54861 2.36096Z" fill="#EA4335"/>
<path fill-rule="evenodd" clip-rule="evenodd" d="M6.61161 4.08287C8.0084 4.08287 9.14012 5.2146 9.14012 6.61138C9.14012 7.23312 8.9152 7.8033 8.54277 8.24309C8.54277 8.24309 10.5398 5.86789 12.4781 3.56424C11.6772 2.02422 10.2891 0.839458 8.61007 0.307983L4.67188 4.98825C5.13605 4.43387 5.83231 4.08287 6.61161 4.08287Z" fill="#4285F4"/>
<path fill-rule="evenodd" clip-rule="evenodd" d="M6.61101 9.13821C5.21423 9.13821 4.0825 8.00648 4.0825 6.6097C4.0825 5.99222 4.30453 5.42636 4.67128 4.98657L0.654297 9.76285C1.3405 11.2857 2.48228 12.5077 3.65846 14.0477L8.54069 8.24283C8.07794 8.79011 7.38458 9.13821 6.61101 9.13821Z" fill="#FBBC04"/>
<path fill-rule="evenodd" clip-rule="evenodd" d="M8.44502 15.6322C10.6498 12.184 13.2212 10.6181 13.2212 6.60975C13.2212 5.51093 12.9519 4.47521 12.4777 3.56409L3.66016 14.0478C4.03406 14.5378 4.41081 15.0592 4.77898 15.6337C6.11989 17.7052 5.7474 18.9472 6.61271 18.9472C7.47512 18.9472 7.10405 17.7037 8.44502 15.6322Z" fill="#34A853"/>
</g>
<defs>
<clipPath id="clip0_1_24142">
<rect width="13.2213" height="18.9474" fill="white"/>
</clipPath>
</defs>
</svg>
