<svg width="20" height="22" viewBox="0 0 20 22" fill="none" xmlns="http://www.w3.org/2000/svg">
<path d="M4.83848 3.51364L3.83847 4.29453C2.32182 5.47887 1.56348 6.07105 1.15674 6.90601C0.75 7.74097 0.75 8.70552 0.75 10.6346V12.7267C0.75 16.513 0.75 18.4062 1.92157 19.5825C2.86466 20.5293 4.27043 20.714 6.75 20.75V16.7557C6.75 15.8238 6.75 15.3578 6.90224 14.9903C7.10523 14.5002 7.49458 14.1109 7.9846 13.9079C8.3522 13.7557 8.8181 13.7557 9.75 13.7557C10.6819 13.7557 11.1478 13.7557 11.5154 13.9079C12.0054 14.1109 12.3948 14.5002 12.5978 14.9903C12.75 15.3578 12.75 15.8238 12.75 16.7557V20.75C15.2296 20.714 16.6353 20.5293 17.5784 19.5825C18.75 18.4062 18.75 16.513 18.75 12.7267V10.6346C18.75 8.70552 18.75 7.74097 18.3433 6.90601C17.9365 6.07105 17.1782 5.47887 15.6615 4.29453L14.6615 3.51364C12.3021 1.67121 11.1224 0.75 9.75 0.75C8.3776 0.75 7.19787 1.67121 4.83848 3.51364Z" stroke="#7C818A" stroke-width="1.5" stroke-linejoin="round"/>
</svg>
