<svg width="17" height="20" viewBox="0 0 17 20" fill="none" xmlns="http://www.w3.org/2000/svg">
<path d="M4.02687 19.6256C3.63256 19.3633 3.28308 19.0391 2.99187 18.6656C2.67155 18.2801 2.37476 17.8756 2.10312 17.4544C1.46568 16.5205 0.965772 15.4999 0.61875 14.4238C0.201875 13.1738 0 11.9756 0 10.8038C0 9.49501 0.283125 8.35252 0.836875 7.39252C1.24736 6.64217 1.85088 6.01512 2.585 5.57626C3.29644 5.13437 4.1139 4.89255 4.95125 4.87626C5.24437 4.87626 5.56 4.91877 5.895 5.00001C6.13562 5.06814 6.42875 5.17564 6.78687 5.30939C7.2425 5.48501 7.49312 5.59251 7.57812 5.61876C7.845 5.71626 8.06937 5.75876 8.24562 5.75876C8.37937 5.75876 8.56812 5.71626 8.7825 5.65126C8.90312 5.60876 9.13062 5.53376 9.45625 5.39439C9.77875 5.27689 10.0325 5.17626 10.2344 5.10126C10.5437 5.01001 10.8431 4.92564 11.11 4.88314C11.4264 4.83326 11.7475 4.82005 12.0669 4.84376C12.6204 4.87994 13.1656 4.99724 13.685 5.19189C14.5344 5.53376 15.2212 6.06751 15.7325 6.82626C15.5164 6.95945 15.3136 7.11307 15.1269 7.28502C14.7204 7.64538 14.3741 8.06843 14.1012 8.53814C13.7446 9.18005 13.5596 9.90318 13.5644 10.6375C13.5775 11.5394 13.8087 12.3338 14.2644 13.0206C14.5993 13.5297 15.0347 13.965 15.5437 14.3C15.8044 14.4756 16.0287 14.5963 16.2437 14.6775C16.1431 14.99 16.0356 15.2925 15.9087 15.5925C15.621 16.2653 15.2723 16.9102 14.8669 17.5194C14.5056 18.0438 14.2225 18.4344 14.0075 18.6944C13.6725 19.0913 13.35 19.3944 13.0244 19.6056C12.6662 19.8431 12.2431 19.97 11.8131 19.97C11.5219 19.9812 11.2308 19.946 10.9506 19.8656C10.71 19.7844 10.4719 19.6963 10.2375 19.5956C9.99384 19.4837 9.74259 19.3891 9.48562 19.3125C8.85044 19.1494 8.18446 19.1483 7.54875 19.3094C7.28812 19.3844 7.0375 19.4719 6.79 19.5794C6.44187 19.7256 6.21062 19.8238 6.07687 19.8656C5.81 19.9438 5.53312 19.9925 5.25312 20.0088C4.82 20.0088 4.41625 19.885 4.01625 19.6344L4.02687 19.6256ZM9.73937 4.24126C9.17312 4.52439 8.6325 4.64501 8.09562 4.60564C8.01125 4.06501 8.09562 3.51189 8.32 2.90626C8.51102 2.39318 8.79327 1.91888 9.15312 1.50626C9.53313 1.0719 9.99425 0.715875 10.5106 0.45814C11.0606 0.175015 11.585 0.0218896 12.0862 -0.000610352C12.1512 0.56564 12.0862 1.12251 11.8781 1.72439C11.6855 2.25644 11.4038 2.75184 11.045 3.18939C10.6788 3.62435 10.2294 3.98176 9.72312 4.24064L9.73937 4.24126Z" fill="black"/>
</svg>
