<svg width="24" height="24" viewBox="0 0 24 24" fill="none" xmlns="http://www.w3.org/2000/svg">
<path d="M4.53125 3.04126C4.62416 3.04626 4.716 3.07017 4.7998 3.1106C4.88329 3.15095 4.95796 3.20728 5.01953 3.27661L5.02051 3.27759L20.0195 19.7776C20.0829 19.8457 20.1328 19.9257 20.165 20.0129C20.1973 20.1002 20.2119 20.1934 20.208 20.2864C20.2041 20.3792 20.181 20.4707 20.1416 20.5549C20.1022 20.639 20.0463 20.7141 19.9775 20.7766C19.9088 20.8391 19.8288 20.888 19.7412 20.9192C19.6537 20.9503 19.5605 20.9642 19.4678 20.9592C19.3749 20.9542 19.283 20.9303 19.1992 20.8899C19.1156 20.8495 19.0411 20.7924 18.9795 20.7229H18.9785L16.916 18.4534L16.8936 18.428L16.8623 18.4417C15.331 19.1178 13.6739 19.4629 12 19.4534L11.3926 19.4387C8.37508 19.2941 5.63745 18.0684 3.44043 15.8723C1.68073 14.1126 0.888969 12.3576 0.857422 12.2864C0.817548 12.1966 0.796906 12.0995 0.796875 12.0012C0.796875 11.9028 0.817443 11.805 0.857422 11.7151C0.921444 11.5704 2.38147 8.36127 5.77344 6.27954L5.82129 6.24927L5.7832 6.20728L3.97949 4.2229L3.89551 4.11157C3.87133 4.07227 3.85007 4.03104 3.83398 3.98755C3.80174 3.90029 3.78714 3.80705 3.79102 3.71411C3.7949 3.62115 3.818 3.52984 3.85742 3.44556C3.89684 3.36133 3.95266 3.28544 4.02148 3.2229C4.09017 3.16056 4.17045 3.11246 4.25781 3.0813C4.34532 3.05015 4.43849 3.03633 4.53125 3.04126ZM6.75977 7.33032C4.15318 8.83554 2.74438 11.1501 2.30273 11.9778L2.29004 12.0002L2.30273 12.0227C2.88259 13.0871 3.6139 14.0619 4.47363 14.9163C6.56909 16.9928 9.1018 18.0471 12 18.0471C13.3111 18.0544 14.6118 17.8165 15.8359 17.3469L15.9004 17.3225L15.8545 17.2717L14.4727 15.7532L14.4463 15.7239L14.4131 15.7454C13.5276 16.3105 12.4709 16.5441 11.4297 16.4055C10.3884 16.2669 9.42945 15.7647 8.72266 14.9875C8.01594 14.2104 7.60681 13.2082 7.56738 12.1584C7.52804 11.1089 7.86054 10.0791 8.50684 9.25122L8.53125 9.21997L8.50488 9.19067L6.81738 7.33911L6.79199 7.31079L6.75977 7.33032ZM12 4.54712C15.2572 4.54712 18.2161 5.78485 20.5596 8.12817C22.3182 9.88683 23.1101 11.6419 23.1426 11.7151C23.1826 11.805 23.2031 11.9028 23.2031 12.0012C23.2031 12.0897 23.1857 12.1769 23.1533 12.259H23.1523L23.1396 12.2864C23.1039 12.3664 22.2698 14.2141 20.4092 16.0178L20.0234 16.3772C19.9549 16.4405 19.8738 16.4898 19.7861 16.5217C19.6986 16.5535 19.6057 16.5681 19.5127 16.5637C19.4196 16.5593 19.3283 16.5363 19.2441 16.4963C19.16 16.4563 19.0846 16.3997 19.0225 16.3303C18.9602 16.2608 18.9124 16.1792 18.8818 16.0911C18.8513 16.003 18.8379 15.9097 18.8438 15.8167C18.8496 15.7236 18.8746 15.6326 18.916 15.5491C18.9573 15.4657 19.0147 15.3913 19.085 15.3303L19.0859 15.3293C20.139 14.3833 21.0238 13.2652 21.7021 12.0227L21.7139 12.0002L21.7021 11.9778C21.121 10.9124 20.388 9.93698 19.5264 9.08228C17.5619 7.13718 15.2131 6.08848 12.5391 5.96509L12 5.95337C11.3896 5.95263 10.7801 6.00176 10.1777 6.10083H10.1768C10.0854 6.11698 9.99188 6.11515 9.90137 6.09497C9.81072 6.0747 9.7243 6.03626 9.64844 5.98267C9.57272 5.92911 9.50831 5.86101 9.45898 5.78247C9.40963 5.70384 9.37665 5.61622 9.36133 5.52466C9.34601 5.43312 9.34906 5.33965 9.37012 5.24927C9.39122 5.15881 9.42911 5.07268 9.4834 4.99731C9.53762 4.92206 9.60657 4.85845 9.68555 4.80981C9.76453 4.76122 9.85275 4.72862 9.94434 4.71411H9.94531C10.6244 4.60199 11.3117 4.54625 12 4.54712ZM9.45312 10.3303C9.08336 10.8951 8.91159 11.5665 8.96484 12.2395C9.0181 12.9124 9.29313 13.5485 9.74707 14.0481C10.2011 14.5477 10.8088 14.8831 11.4736 15.0002C12.1384 15.1173 12.8236 15.0098 13.4209 14.6956L13.4746 14.6672L13.4336 14.6223L9.52734 10.3245L9.48633 10.2795L9.45312 10.3303ZM12.835 7.62622C13.7807 7.80962 14.6419 8.29339 15.29 9.0061C15.9382 9.71892 16.3387 10.6224 16.4316 11.5813C16.449 11.7669 16.3924 11.9524 16.2734 12.0959C16.1544 12.2395 15.9825 12.3296 15.7969 12.3469H15.7314C15.5557 12.3477 15.386 12.2824 15.2559 12.1643C15.1258 12.0463 15.0447 11.8841 15.0283 11.7092V11.7083L14.9941 11.4651C14.8928 10.9018 14.6343 10.3763 14.2471 9.95044C13.8598 9.52476 13.3616 9.2179 12.8105 9.06372L12.5713 9.00708C12.3881 8.97211 12.2259 8.8664 12.1211 8.71216C12.0163 8.55788 11.9777 8.36803 12.0127 8.18481C12.0477 8.00162 12.1534 7.83944 12.3076 7.73462C12.4619 7.62979 12.6517 7.59126 12.835 7.62622Z" fill="#1E293B" stroke="#7C818A" stroke-width="0.09375"/>
</svg>
