<svg width="186" height="33" viewBox="0 0 186 33" fill="none" xmlns="http://www.w3.org/2000/svg">
<path d="M0.257812 2.95723H7.12968L16.0395 6.04902L19.1312 7.15133H12.2271V25.5408H7.12968V7.15133H0.257812V2.95723ZM31.6868 12.5069C30.5254 12.3993 29.5038 12.5391 28.6219 12.9263C27.7616 13.3134 27.0948 13.8726 26.6217 14.6039C26.17 15.3352 25.9442 16.2063 25.9442 17.2172L24.6859 16.9913C24.6859 15.0986 24.9655 13.4855 25.5247 12.152C26.1055 10.8185 26.9228 9.79683 27.9767 9.08706C29.0306 8.3773 30.2673 8.02241 31.6868 8.02241V12.5069ZM20.9758 8.21598H25.9442V25.5408H20.9758V8.21598ZM34.3973 8.21598H39.3657V25.5408H34.3973V8.21598ZM36.8815 0.569824C37.6773 0.569824 38.3226 0.827924 38.8173 1.34412C39.3335 1.86032 39.5916 2.50556 39.5916 3.27986C39.5916 4.05415 39.3335 4.6994 38.8173 5.21559C38.3226 5.73179 37.6773 5.98989 36.8815 5.98989C36.1287 5.98989 35.4943 5.73179 34.9781 5.21559C34.4619 4.6994 34.2038 4.05415 34.2038 3.27986C34.2038 2.50556 34.4619 1.86032 34.9781 1.34412C35.4943 0.827924 36.1287 0.569824 36.8815 0.569824ZM54.747 8.05467C56.3817 8.05467 57.8012 8.43106 59.0057 9.18385C60.2316 9.91513 61.1887 10.9475 61.877 12.281C62.5653 13.6145 62.9094 15.1739 62.9094 16.9591C62.9094 18.7012 62.576 20.2283 61.9093 21.5403C61.2425 22.8523 60.3069 23.8739 59.1024 24.6052C57.898 25.3365 56.4784 25.7021 54.8438 25.7021C53.3382 25.7021 52.0478 25.358 50.9724 24.6697C49.8969 23.96 49.0689 22.9491 48.4882 21.6371C47.9074 20.3036 47.6171 18.7442 47.6171 16.9591C47.6171 15.1094 47.8967 13.5177 48.4559 12.1842C49.0366 10.8507 49.8539 9.8291 50.9078 9.11933C51.9832 8.40956 53.263 8.05467 54.747 8.05467ZM53.5856 11.9261C52.7468 11.9261 51.994 12.1412 51.3272 12.5714C50.682 12.98 50.1765 13.55 49.8109 14.2813C49.4453 15.0126 49.2625 15.8621 49.2625 16.83C49.2625 17.7979 49.4453 18.6582 49.8109 19.411C50.1765 20.1423 50.682 20.7122 51.3272 21.1209C51.994 21.5295 52.7468 21.7339 53.5856 21.7339C54.4459 21.7339 55.1987 21.5295 55.844 21.1209C56.4892 20.7122 56.9839 20.1423 57.328 19.411C57.6937 18.6582 57.8765 17.7979 57.8765 16.83C57.8765 15.8836 57.6937 15.0448 57.328 14.3136C56.9839 13.5608 56.4892 12.98 55.844 12.5714C55.1987 12.1412 54.4459 11.9261 53.5856 11.9261ZM44.2941 8.21598H49.2625L49.0652 30.9178L49.0711 30.2457L44.2941 31.7997V8.21598ZM66.2838 2.95723H71.962L78.9952 17.0236L85.9639 2.95723H91.6098V25.5408H87.0285V9.99041L80.6083 23.2502H77.3176L70.8651 9.99041V25.5408H66.2838V2.95723ZM102.657 18.0237C101.711 18.0237 101.001 18.185 100.528 18.5076C100.055 18.8303 99.8185 19.3465 99.8185 20.0562C99.8185 20.7445 100.055 21.293 100.528 21.7016C101.023 22.0888 101.69 22.2823 102.529 22.2823C103.26 22.2823 103.905 22.164 104.464 21.9274C105.045 21.6693 105.518 21.336 105.884 20.9273C106.271 20.4972 106.508 20.0025 106.594 19.4433L107.336 22.2178C106.841 23.3792 106.067 24.2611 105.013 24.8633C103.959 25.4655 102.668 25.7667 101.141 25.7667C99.9153 25.7667 98.8506 25.5301 97.9473 25.0569C97.0655 24.5837 96.3772 23.9385 95.8825 23.1212C95.4093 22.3038 95.1727 21.379 95.1727 20.3466C95.1727 18.7335 95.7427 17.4645 96.8826 16.5396C98.0226 15.6148 99.6572 15.1416 101.786 15.1201H107.078V18.0237H102.657ZM106.561 14.7975C106.561 13.8511 106.249 13.1091 105.626 12.5714C105.023 12.0337 104.131 11.7648 102.948 11.7648C102.174 11.7648 101.346 11.9046 100.464 12.1842C99.5819 12.4423 98.6893 12.8187 97.786 13.3134L96.2374 10.0872C97.0977 9.63552 97.9365 9.25913 98.7538 8.95802C99.5712 8.6569 100.41 8.43107 101.27 8.28051C102.131 8.10844 103.066 8.02241 104.077 8.02241C106.422 8.02241 108.228 8.57087 109.497 9.66779C110.766 10.7647 111.411 12.281 111.433 14.2168L111.465 25.5408H106.594L106.561 14.7975ZM126.457 12.5069C125.296 12.3993 124.274 12.5391 123.392 12.9263C122.532 13.3134 121.865 13.8726 121.392 14.6039C120.94 15.3352 120.714 16.2063 120.714 17.2172L119.456 16.9913C119.456 15.0986 119.736 13.4855 120.295 12.152C120.876 10.8185 121.693 9.79683 122.747 9.08706C123.801 8.3773 125.038 8.02241 126.457 8.02241V12.5069ZM115.746 8.21598H120.714V25.5408H115.746V8.21598ZM140.75 13.9587C140.298 13.3779 139.739 12.9263 139.072 12.6037C138.406 12.281 137.642 12.1197 136.782 12.1197C135.986 12.1197 135.276 12.324 134.652 12.7327C134.029 13.1198 133.534 13.6791 133.168 14.4103C132.824 15.1201 132.652 15.9589 132.652 16.9268C132.652 17.8732 132.824 18.712 133.168 19.4433C133.534 20.1745 134.029 20.7445 134.652 21.1532C135.276 21.5403 135.986 21.7339 136.782 21.7339C137.663 21.7339 138.449 21.5726 139.137 21.2499C139.825 20.9058 140.384 20.4004 140.814 19.7336L144.234 21.992C143.503 23.1749 142.471 24.089 141.137 24.7343C139.825 25.3795 138.298 25.7021 136.556 25.7021C134.792 25.7021 133.244 25.3365 131.91 24.6052C130.577 23.8739 129.533 22.8523 128.781 21.5403C128.049 20.2068 127.684 18.669 127.684 16.9268C127.684 15.1631 128.049 13.6145 128.781 12.281C129.533 10.9475 130.577 9.91513 131.91 9.18385C133.265 8.43106 134.814 8.05467 136.556 8.05467C138.233 8.05467 139.718 8.36654 141.008 8.99028C142.298 9.59251 143.331 10.4528 144.105 11.5713L140.75 13.9587ZM159.897 16.0557C159.897 14.9158 159.585 14.0232 158.961 13.3779C158.359 12.7327 157.531 12.4101 156.477 12.4101C155.23 12.4316 154.251 12.8725 153.541 13.7328C152.831 14.5932 152.477 15.6793 152.477 16.9913H151.251C151.251 14.9696 151.541 13.3027 152.122 11.9907C152.702 10.6572 153.53 9.66779 154.606 9.02254C155.703 8.35579 156.993 8.02241 158.477 8.02241C159.789 8.02241 160.919 8.30202 161.865 8.86123C162.833 9.39893 163.575 10.1625 164.091 11.1518C164.607 12.1412 164.865 13.3134 164.865 14.6684V25.5408H159.897V16.0557ZM147.508 1.60222H152.477V25.5408H147.508V1.60222ZM180.442 15.475C180.42 14.6792 180.248 14.0017 179.926 13.4425C179.625 12.8617 179.184 12.4101 178.603 12.0875C178.022 11.7648 177.355 11.6035 176.603 11.6035C175.764 11.6035 175.033 11.8186 174.409 12.2488C173.785 12.6789 173.301 13.2704 172.957 14.0232C172.613 14.776 172.441 15.6471 172.441 16.6364C172.441 17.7549 172.634 18.712 173.022 19.5078C173.409 20.3036 173.957 20.9166 174.667 21.3467C175.377 21.7769 176.194 21.992 177.119 21.992C178.797 21.992 180.259 21.3682 181.507 20.1208L184.12 22.7017C183.259 23.6696 182.195 24.4116 180.926 24.9278C179.678 25.444 178.27 25.7021 176.699 25.7021C174.85 25.7021 173.247 25.3365 171.892 24.6052C170.537 23.8739 169.483 22.8523 168.731 21.5403C167.999 20.2068 167.634 18.669 167.634 16.9268C167.634 15.1416 168.01 13.593 168.763 12.281C169.516 10.9475 170.559 9.91513 171.892 9.18385C173.247 8.45257 174.807 8.07618 176.57 8.05467C178.614 8.05467 180.281 8.48484 181.571 9.34516C182.883 10.184 183.829 11.3777 184.41 12.9263C185.012 14.4534 185.238 16.2708 185.088 18.3786H171.731V15.475H180.442Z" fill="white"/>
</svg>
