<svg width="28" height="28" viewBox="0 0 28 28" fill="none" xmlns="http://www.w3.org/2000/svg">
  <!-- Approximates Google Maps-style marker; replace with Figma export for 1:1. -->
  <path d="M14 2.5C9.86 2.5 6.5 5.86 6.5 10c0 5.2 6.5 12.25 7.5 13.5 1-1.3 7.5-8.3 7.5-13.5 0-4.14-3.36-7.5-7.5-7.5z" fill="#EA4335"/>
  <path d="M14 6.5c-1.93 0-3.5 1.57-3.5 3.5 0 .62.16 1.2.44 1.7L14 19l3.06-7.3c.28-.5.44-1.08.44-1.7 0-1.93-1.57-3.5-3.5-3.5z" fill="#FFFFFF" fill-opacity="0.95"/>
  <circle cx="11" cy="9.5" r="1.1" fill="#FBBC04"/>
  <circle cx="17" cy="9.5" r="1.1" fill="#34A853"/>
  <circle cx="14" cy="7.2" r="1.1" fill="#4285F4"/>
</svg>
